<?xml version="1.0" encoding="utf-8"?>
<!-- Generator: Adobe Illustrator 23.0.3, SVG Export Plug-In . SVG Version: 6.00 Build 0)  -->
<svg version="1.1" xmlns="http://www.w3.org/2000/svg" xmlns:xlink="http://www.w3.org/1999/xlink" x="0px" y="0px"
	 viewBox="0 0 500 500" style="enable-background:new 0 0 500 500;" xml:space="preserve">
<style type="text/css">
	.st0{fill:none;stroke:#000000;stroke-width:1.7827;stroke-miterlimit:10;}
	.st1{fill:none;stroke:#000000;stroke-width:8.7229;stroke-miterlimit:10;}
	.st2{fill:none;stroke:#000000;stroke-width:8.567;stroke-miterlimit:10;}
	.st3{fill:none;stroke:#000000;stroke-width:9.1232;stroke-miterlimit:10;}
	.st4{fill:none;stroke:#000000;stroke-width:8.7705;stroke-miterlimit:10;}
	.st5{opacity:0.6;fill:url(#SVGID_1_);}
	.st6{opacity:0.6;fill:url(#SVGID_2_);}
	.st7{opacity:0.6;fill:url(#SVGID_3_);}
	.st8{opacity:0.6;fill:url(#SVGID_4_);}
	.st9{fill:#ED1C24;}
	.st10{fill:#FFFFFF;}
	.st11{opacity:0.4;}
	.st12{opacity:0.6;fill:url(#SVGID_5_);}
	.st13{opacity:0.6;fill:url(#SVGID_6_);}
	.st14{opacity:0.6;fill:url(#SVGID_7_);}
	.st15{opacity:0.6;fill:url(#SVGID_8_);}
	.st16{fill:none;stroke:#000000;stroke-width:7.9363;stroke-miterlimit:10;}
	.st17{opacity:0.4;fill:#A7A9AC;}
	.st18{fill:none;stroke:#000000;stroke-width:9.0983;stroke-miterlimit:10;}
	.st19{fill:none;stroke:#000000;stroke-width:6.8218;stroke-miterlimit:10;}
	.st20{opacity:0.6;fill:url(#SVGID_9_);}
	.st21{opacity:0.6;fill:url(#SVGID_10_);}
	.st22{opacity:0.6;fill:url(#SVGID_11_);}
	.st23{opacity:0.6;fill:url(#SVGID_12_);}
	.st24{opacity:0.6;fill:url(#SVGID_13_);}
	.st25{opacity:0.6;fill:url(#SVGID_14_);}
	.st26{fill:none;stroke:#000000;stroke-width:7.4383;stroke-miterlimit:10;}
	.st27{fill:none;stroke:#000000;stroke-width:8.5273;stroke-miterlimit:10;}
	.st28{fill:none;stroke:#000000;stroke-width:6.3937;stroke-miterlimit:10;}
	.st29{opacity:0.6;fill:url(#SVGID_15_);}
	.st30{opacity:0.6;fill:url(#SVGID_16_);}
	.st31{opacity:0.6;fill:url(#SVGID_17_);}
	.st32{fill:none;stroke:#000000;stroke-width:8.1755;stroke-miterlimit:10;}
	.st33{opacity:0.6;fill:url(#SVGID_18_);}
	.st34{opacity:0.6;fill:url(#SVGID_19_);}
	.st35{opacity:0.6;fill:url(#SVGID_20_);}
</style>
<g id="Layer_1">
</g>
<g id="Layer_4">
</g>
<g id="Layer_3">
</g>
<g id="Layer_2">
	<g>
		<g>
			<polygon class="st9" points="395,407.2 68,407.2 68,80.1 395,80.1 395,116.5 			"/>
			<polygon class="st1" points="395,407.2 68,407.2 68,80.1 395,80.1 395,116.5 			"/>
		</g>
		<line class="st1" x1="70.2" y1="123" x2="394.1" y2="123"/>
		<rect x="72.8" y="84.6" class="st10" width="318.5" height="34.1"/>
		<g>
			<rect x="90.4" y="147.2" class="st10" width="279.1" height="79.7"/>
			<rect x="90.4" y="147.2" class="st2" width="279.1" height="79.7"/>
		</g>
		<g>
			<rect x="90.4" y="246.9" class="st10" width="99.7" height="137.4"/>
			<rect x="90.4" y="246.9" class="st3" width="99.7" height="137.4"/>
		</g>
		<g>
			<rect x="208.3" y="246.9" class="st10" width="164.4" height="60.1"/>
			<rect x="208.3" y="246.9" class="st4" width="164.4" height="60.1"/>
		</g>
		<g>
			<rect x="208.3" y="324.9" class="st10" width="164.4" height="60.1"/>
			<rect x="208.3" y="324.9" class="st4" width="164.4" height="60.1"/>
		</g>
		<polyline class="st11" points="466.3,174.6 365.2,222.6 94.6,222.9 94.8,151.6 200.8,96.1 		"/>
		<g>
			<rect x="193.8" y="95.5" width="279.1" height="79.7"/>
		</g>
		<polygon class="st11" points="107.5,184.6 185.6,251.7 185,379.4 95.1,379.9 15.2,316.4 		"/>
		<g>
			<rect x="9.3" y="179.9" width="99.7" height="137.4"/>
		</g>
		<polygon class="st11" points="300.5,419.9 368.3,380.4 368.6,329.3 212.7,329.2 149.1,361.8 		"/>
		<g>
			<rect x="145.1" y="359.8" width="164.4" height="60.1"/>
		</g>
		<polygon class="st11" points="338.9,353.8 212.7,302.6 212.7,251.3 368.3,251.3 486,293.5 		"/>
		<g>
			<rect x="330.7" y="293.8" width="164.4" height="60.1"/>
		</g>
		<circle cx="92.1" cy="102.4" r="7"/>
	</g>
</g>
<g id="Layer_6">
</g>
<g id="Layer_5">
</g>
</svg>
