<?xml version="1.0" encoding="utf-8"?>
<!-- Generator: Adobe Illustrator 23.0.3, SVG Export Plug-In . SVG Version: 6.00 Build 0)  -->
<svg version="1.1" xmlns="http://www.w3.org/2000/svg" xmlns:xlink="http://www.w3.org/1999/xlink" x="0px" y="0px"
	 viewBox="0 0 500 500" style="enable-background:new 0 0 500 500;" xml:space="preserve">
<style type="text/css">
	.st0{fill:none;stroke:#000000;stroke-width:1.7827;stroke-miterlimit:10;}
	.st1{fill:none;stroke:#000000;stroke-width:8.7229;stroke-miterlimit:10;}
	.st2{fill:none;stroke:#000000;stroke-width:8.567;stroke-miterlimit:10;}
	.st3{fill:none;stroke:#000000;stroke-width:9.1232;stroke-miterlimit:10;}
	.st4{fill:none;stroke:#000000;stroke-width:8.7705;stroke-miterlimit:10;}
	.st5{opacity:0.6;fill:url(#SVGID_1_);}
	.st6{opacity:0.6;fill:url(#SVGID_2_);}
	.st7{opacity:0.6;fill:url(#SVGID_3_);}
	.st8{opacity:0.6;fill:url(#SVGID_4_);}
	.st9{fill:#ED1C24;}
	.st10{fill:#FFFFFF;}
	.st11{opacity:0.4;}
	.st12{opacity:0.6;fill:url(#SVGID_5_);}
	.st13{opacity:0.6;fill:url(#SVGID_6_);}
	.st14{opacity:0.6;fill:url(#SVGID_7_);}
	.st15{opacity:0.6;fill:url(#SVGID_8_);}
	.st16{fill:none;stroke:#000000;stroke-width:7.9363;stroke-miterlimit:10;}
	.st17{opacity:0.4;fill:#A7A9AC;}
	.st18{fill:none;stroke:#000000;stroke-width:9.0983;stroke-miterlimit:10;}
	.st19{fill:none;stroke:#000000;stroke-width:6.8218;stroke-miterlimit:10;}
	.st20{opacity:0.6;fill:url(#SVGID_9_);}
	.st21{opacity:0.6;fill:url(#SVGID_10_);}
	.st22{opacity:0.6;fill:url(#SVGID_11_);}
	.st23{opacity:0.6;fill:url(#SVGID_12_);}
	.st24{opacity:0.6;fill:url(#SVGID_13_);}
	.st25{opacity:0.6;fill:url(#SVGID_14_);}
	.st26{fill:none;stroke:#000000;stroke-width:7.4383;stroke-miterlimit:10;}
	.st27{fill:none;stroke:#000000;stroke-width:8.5273;stroke-miterlimit:10;}
	.st28{fill:none;stroke:#000000;stroke-width:6.3937;stroke-miterlimit:10;}
	.st29{opacity:0.6;fill:url(#SVGID_15_);}
	.st30{opacity:0.6;fill:url(#SVGID_16_);}
	.st31{opacity:0.6;fill:url(#SVGID_17_);}
	.st32{fill:none;stroke:#000000;stroke-width:8.1755;stroke-miterlimit:10;}
	.st33{opacity:0.6;fill:url(#SVGID_18_);}
	.st34{opacity:0.6;fill:url(#SVGID_19_);}
	.st35{opacity:0.6;fill:url(#SVGID_20_);}
</style>
<g id="Layer_1">
</g>
<g id="Layer_4">
</g>
<g id="Layer_3">
</g>
<g id="Layer_2">
	<g>
		<g>
			<path class="st1" d="M395.4,407.2C395.4,407.2,395.4,407.2,395.4,407.2l-327,0c0,0,0,0,0,0v-327c0,0,0,0,0,0h327c0,0,0,0,0,0
				v36.3c0,0,0,0,0,0V407.2z"/>
		</g>
		<line class="st1" x1="65.6" y1="123" x2="394.5" y2="123"/>
		<g>
			<rect x="90.8" y="147.2" class="st2" width="279.1" height="79.7"/>
		</g>
		<g>
			<rect x="90.8" y="246.9" class="st3" width="99.7" height="137.4"/>
		</g>
		<g>
			<rect x="208.7" y="246.9" class="st4" width="164.4" height="60.1"/>
		</g>
		<g>
			<rect x="208.7" y="324.9" class="st4" width="164.4" height="60.1"/>
		</g>
		<linearGradient id="SVGID_1_" gradientUnits="userSpaceOnUse" x1="327.9192" y1="87.894" x2="201.8279" y2="289.6822">
			<stop  offset="0" style="stop-color:#FFFFFF"/>
			<stop  offset="0.1316" style="stop-color:#D8D8D8"/>
			<stop  offset="0.4533" style="stop-color:#7C7C7C"/>
			<stop  offset="0.715" style="stop-color:#393939"/>
			<stop  offset="0.9034" style="stop-color:#101010"/>
			<stop  offset="1" style="stop-color:#000000"/>
		</linearGradient>
		<polyline class="st5" points="466.7,174.6 365.6,222.6 95,222.9 95.2,151.6 201.2,96.1 		"/>
		<g>
			<path d="M473.3,175.2C473.3,175.2,473.2,175.2,473.3,175.2l-279.1,0c0,0,0,0,0,0V95.5c0,0,0,0,0,0h279c0,0,0,0,0,0V175.2z"/>
		</g>
		<linearGradient id="SVGID_2_" gradientUnits="userSpaceOnUse" x1="15.6001" y1="282.2436" x2="186.0329" y2="282.2436">
			<stop  offset="0" style="stop-color:#FFFFFF"/>
			<stop  offset="0.1316" style="stop-color:#D8D8D8"/>
			<stop  offset="0.4533" style="stop-color:#7C7C7C"/>
			<stop  offset="0.715" style="stop-color:#393939"/>
			<stop  offset="0.9034" style="stop-color:#101010"/>
			<stop  offset="1" style="stop-color:#000000"/>
		</linearGradient>
		<polygon class="st6" points="107.9,184.6 186,251.7 185.4,379.4 95.5,379.9 15.6,316.4 		"/>
		<g>
			<path d="M109.4,317.3C109.4,317.3,109.4,317.3,109.4,317.3l-99.7,0c0,0,0,0,0,0V179.9c0,0,0,0,0,0h99.7c0,0,0,0,0,0V317.3z"/>
		</g>
		<linearGradient id="SVGID_3_" gradientUnits="userSpaceOnUse" x1="149.5226" y1="374.5067" x2="369.0187" y2="374.5067">
			<stop  offset="0" style="stop-color:#FFFFFF"/>
			<stop  offset="0.1316" style="stop-color:#D8D8D8"/>
			<stop  offset="0.4533" style="stop-color:#7C7C7C"/>
			<stop  offset="0.715" style="stop-color:#393939"/>
			<stop  offset="0.9034" style="stop-color:#101010"/>
			<stop  offset="1" style="stop-color:#000000"/>
		</linearGradient>
		<polygon class="st7" points="308.9,419.9 368.7,380.4 369,329.3 213.1,329.2 149.5,361.8 		"/>
		<g>
			<rect x="145.5" y="359.8" width="164.4" height="60.1"/>
		</g>
		<linearGradient id="SVGID_4_" gradientUnits="userSpaceOnUse" x1="382.8283" y1="353.9148" x2="295.9702" y2="203.4721">
			<stop  offset="0" style="stop-color:#FFFFFF"/>
			<stop  offset="0.1316" style="stop-color:#D8D8D8"/>
			<stop  offset="0.4533" style="stop-color:#7C7C7C"/>
			<stop  offset="0.715" style="stop-color:#393939"/>
			<stop  offset="0.9034" style="stop-color:#101010"/>
			<stop  offset="1" style="stop-color:#000000"/>
		</linearGradient>
		<polygon class="st8" points="339.3,353.8 213.1,301.6 213.1,251.3 368.7,251.3 487.4,293.5 		"/>
		<g>
			<rect x="331.1" y="293.8" width="164.4" height="60.1"/>
		</g>
		<circle cx="90.5" cy="102.4" r="7"/>
	</g>
</g>
<g id="Layer_6">
</g>
<g id="Layer_5">
</g>
</svg>
