<?xml version="1.0" encoding="utf-8"?>
<!-- Generator: Adobe Illustrator 23.0.3, SVG Export Plug-In . SVG Version: 6.00 Build 0)  -->
<svg version="1.1" xmlns="http://www.w3.org/2000/svg" xmlns:xlink="http://www.w3.org/1999/xlink" x="0px" y="0px"
	 viewBox="0 0 529.2 500" style="enable-background:new 0 0 529.2 500;" xml:space="preserve">
<style type="text/css">
	.st0{fill:none;stroke:#000000;stroke-width:1.7827;stroke-miterlimit:10;}
	.st1{fill:none;stroke:#000000;stroke-width:8.7229;stroke-miterlimit:10;}
	.st2{fill:none;stroke:#000000;stroke-width:8.567;stroke-miterlimit:10;}
	.st3{fill:none;stroke:#000000;stroke-width:9.1232;stroke-miterlimit:10;}
	.st4{fill:none;stroke:#000000;stroke-width:8.7705;stroke-miterlimit:10;}
	.st5{opacity:0.6;fill:url(#SVGID_1_);}
	.st6{opacity:0.6;fill:url(#SVGID_2_);}
	.st7{opacity:0.6;fill:url(#SVGID_3_);}
	.st8{opacity:0.6;fill:url(#SVGID_4_);}
	.st9{fill:#ED1C24;}
	.st10{fill:#FFFFFF;}
	.st11{opacity:0.4;}
	.st12{opacity:0.6;fill:url(#SVGID_5_);}
	.st13{opacity:0.6;fill:url(#SVGID_6_);}
	.st14{opacity:0.6;fill:url(#SVGID_7_);}
	.st15{opacity:0.6;fill:url(#SVGID_8_);}
	.st16{fill:none;stroke:#000000;stroke-width:7.9363;stroke-miterlimit:10;}
	.st17{opacity:0.4;fill:#A7A9AC;}
	.st18{fill:none;stroke:#000000;stroke-width:9.0983;stroke-miterlimit:10;}
	.st19{fill:none;stroke:#000000;stroke-width:6.8218;stroke-miterlimit:10;}
	.st20{opacity:0.6;fill:url(#SVGID_9_);}
	.st21{opacity:0.6;fill:url(#SVGID_10_);}
	.st22{opacity:0.6;fill:url(#SVGID_11_);}
	.st23{opacity:0.6;fill:url(#SVGID_12_);}
	.st24{opacity:0.6;fill:url(#SVGID_13_);}
	.st25{opacity:0.6;fill:url(#SVGID_14_);}
	.st26{fill:none;stroke:#000000;stroke-width:7.4383;stroke-miterlimit:10;}
	.st27{fill:none;stroke:#000000;stroke-width:8.5273;stroke-miterlimit:10;}
	.st28{fill:none;stroke:#000000;stroke-width:6.3937;stroke-miterlimit:10;}
	.st29{opacity:0.6;fill:url(#SVGID_15_);}
	.st30{opacity:0.6;fill:url(#SVGID_16_);}
	.st31{opacity:0.6;fill:url(#SVGID_17_);}
	.st32{fill:none;stroke:#000000;stroke-width:8.1755;stroke-miterlimit:10;}
	.st33{opacity:0.6;fill:url(#SVGID_18_);}
	.st34{opacity:0.6;fill:url(#SVGID_19_);}
	.st35{opacity:0.6;fill:url(#SVGID_20_);}
</style>
<g id="Layer_1">
</g>
<g id="Layer_4">
</g>
<g id="Layer_3">
</g>
<g id="Layer_2">
	<g>
		<g>
			<g>
				<path class="st1" d="M408.5,363.7C408.5,363.7,408.4,363.7,408.5,363.7l-327,0c0,0,0,0,0,0v-327c0,0,0,0,0,0h327c0,0,0,0,0,0V73
					c0,0,0,0,0,0V363.7z"/>
			</g>
			<line class="st1" x1="78.6" y1="79.5" x2="407.5" y2="79.5"/>
			<g>
				<rect x="103.8" y="103.8" class="st2" width="279.1" height="79.7"/>
			</g>
			<g>
				<rect x="103.8" y="203.5" class="st3" width="99.7" height="137.4"/>
			</g>
			<g>
				<rect x="221.7" y="203.5" class="st4" width="164.4" height="60.1"/>
			</g>
			<g>
				<rect x="221.7" y="281.5" class="st4" width="164.4" height="60.1"/>
			</g>
			<linearGradient id="SVGID_1_" gradientUnits="userSpaceOnUse" x1="345.4235" y1="42.8589" x2="217.3665" y2="247.7929">
				<stop  offset="0" style="stop-color:#FFFFFF"/>
				<stop  offset="0.1316" style="stop-color:#D8D8D8"/>
				<stop  offset="0.4533" style="stop-color:#7C7C7C"/>
				<stop  offset="0.715" style="stop-color:#393939"/>
				<stop  offset="0.9034" style="stop-color:#101010"/>
				<stop  offset="1" style="stop-color:#000000"/>
			</linearGradient>
			<polyline class="st5" points="486.7,131.1 378.6,179.1 108,179.4 108.2,108.1 207.3,52.6 			"/>
			<g>
				<path d="M486.3,131.3C486.3,131.3,486.3,131.3,486.3,131.3l-279.1,0.5c0,0,0,0,0,0V52.1c0,0,0,0,0,0l279-0.4c0,0,0,0,0,0V131.3z
					"/>
			</g>
			<linearGradient id="SVGID_2_" gradientUnits="userSpaceOnUse" x1="28.6216" y1="238.7814" x2="199.0544" y2="238.7814">
				<stop  offset="0" style="stop-color:#FFFFFF"/>
				<stop  offset="0.1316" style="stop-color:#D8D8D8"/>
				<stop  offset="0.4533" style="stop-color:#7C7C7C"/>
				<stop  offset="0.715" style="stop-color:#393939"/>
				<stop  offset="0.9034" style="stop-color:#101010"/>
				<stop  offset="1" style="stop-color:#000000"/>
			</linearGradient>
			<polygon class="st6" points="120.9,141.1 199.1,208.2 198.5,336 108.5,336.5 28.6,273 			"/>
			<g>
				<path d="M122.4,273.8C122.4,273.8,122.4,273.8,122.4,273.8l-99.7,0c0,0,0,0,0,0V136.4c0,0,0,0,0,0h99.7c0,0,0,0,0,0V273.8z"/>
			</g>
			<linearGradient id="SVGID_3_" gradientUnits="userSpaceOnUse" x1="162.5441" y1="331.0445" x2="382.0402" y2="331.0445">
				<stop  offset="0" style="stop-color:#FFFFFF"/>
				<stop  offset="0.1316" style="stop-color:#D8D8D8"/>
				<stop  offset="0.4533" style="stop-color:#7C7C7C"/>
				<stop  offset="0.715" style="stop-color:#393939"/>
				<stop  offset="0.9034" style="stop-color:#101010"/>
				<stop  offset="1" style="stop-color:#000000"/>
			</linearGradient>
			<polygon class="st7" points="321.9,376.4 381.7,337 382,285.9 226.1,285.7 162.5,318.3 			"/>
			<g>
				<rect x="158.5" y="316.3" width="164.4" height="60.1"/>
			</g>
			<linearGradient id="SVGID_4_" gradientUnits="userSpaceOnUse" x1="395.8498" y1="310.4527" x2="308.9917" y2="160.0099">
				<stop  offset="0" style="stop-color:#FFFFFF"/>
				<stop  offset="0.1316" style="stop-color:#D8D8D8"/>
				<stop  offset="0.4533" style="stop-color:#7C7C7C"/>
				<stop  offset="0.715" style="stop-color:#393939"/>
				<stop  offset="0.9034" style="stop-color:#101010"/>
				<stop  offset="1" style="stop-color:#000000"/>
			</linearGradient>
			<polygon class="st8" points="352.3,310.3 226.2,258.1 226.2,207.8 381.7,207.8 500.5,250.1 			"/>
			<g>
				<rect x="344.1" y="250.3" width="164.4" height="60.1"/>
			</g>
			<circle cx="103.5" cy="59" r="7"/>
		</g>
	</g>
	<g>
		<g>
			<path d="M144.3,409.4h13.2c9.3,0,16.2,3.2,16.2,12.9c0,9.4-6.9,13.6-16,13.6h-6v15.4h-7.4V409.4z M157.2,429.9
				c6.3,0,9.2-2.5,9.2-7.7c0-5.2-3.3-7-9.5-7h-5.2v14.6H157.2z"/>
			<path d="M178.9,435.6c0-10.5,7.1-16.6,15-16.6s15,6.1,15,16.6c0,10.4-7.1,16.5-15,16.5S178.9,446,178.9,435.6z M201.3,435.6
				c0-6.3-2.8-10.5-7.4-10.5s-7.4,4.2-7.4,10.5s2.8,10.5,7.4,10.5S201.3,441.9,201.3,435.6z"/>
			<path d="M216.2,443.2V406h7.4v37.6c0,1.8,0.8,2.5,1.6,2.5c0.3,0,0.6,0,1.2-0.1l0.9,5.5c-0.9,0.4-2.1,0.6-3.9,0.6
				C218.2,452.1,216.2,448.7,216.2,443.2z"/>
			<path d="M231.6,463.6l1.4-5.7c0.6,0.2,1.5,0.4,2.3,0.4c3.3,0,5.2-2.3,6.3-5.4l0.6-2l-12.4-31.1h7.5l5.4,15.5
				c0.9,2.8,1.8,5.9,2.8,8.9h0.3c0.8-2.9,1.6-6,2.4-8.9l4.7-15.5h7.1l-11.4,33c-2.6,7.1-5.9,11.5-12.8,11.5
				C234,464.3,232.8,464,231.6,463.6z"/>
			<path d="M267,409H290v2.5h-20.1v16.9h17v2.5h-17v20.4h-3V409z"/>
			<path d="M296.1,410.5c0-1.6,1.2-2.5,2.6-2.5c1.4,0,2.6,0.9,2.6,2.5c0,1.5-1.2,2.5-2.6,2.5C297.3,413.1,296.1,412,296.1,410.5z
				 M297.2,420.5h2.8v30.8h-2.8V420.5z"/>
			<path d="M311.9,447.2v-42h2.8v42.4c0,1.4,0.6,2,1.3,2c0.3,0,0.5,0,1.2-0.1l0.5,2.3c-0.6,0.2-1.1,0.3-2,0.3
				C313.2,452.1,311.9,450.6,311.9,447.2z"/>
			<path d="M324.6,436c0-10,6.5-16.2,13.4-16.2c7.3,0,11.8,5.2,11.8,14.3c0,0.8,0,1.5-0.2,2.3h-22.2c0.1,7.8,4.7,13.3,11.6,13.3
				c3.3,0,6-1.1,8.3-2.7l1.2,2.2c-2.4,1.5-5.2,3-9.7,3C330.9,452.1,324.6,446.1,324.6,436z M347.1,434c0-7.9-3.6-11.8-9.1-11.8
				c-5.2,0-9.9,4.4-10.6,11.8H347.1z"/>
		</g>
	</g>
</g>
<g id="Layer_6">
</g>
<g id="Layer_5">
</g>
</svg>
